<svg width="7" height="5" viewBox="0 0 7 5" fill="none" xmlns="http://www.w3.org/2000/svg">
<g id="Clip path group">
<mask id="mask0_101_1187" style="mask-type:luminance" maskUnits="userSpaceOnUse" x="0" y="0" width="8" height="5">
<g id="clip-path">
<path id="Rectangle 17124" d="M7.00118 0.307129H0.180176V4.55313H7.00118V0.307129Z" fill="white"/>
</g>
</mask>
<g mask="url(#mask0_101_1187)">
<g id="Group 37831">
<path id="Path 35262" d="M0.296388 1.06013L3.31139 4.42413C3.34584 4.46462 3.38868 4.49714 3.43694 4.51944C3.4852 4.54174 3.53772 4.55329 3.59089 4.55329C3.64405 4.55329 3.69658 4.54174 3.74484 4.51944C3.7931 4.49714 3.83593 4.46462 3.87039 4.42413L6.88039 1.06013C6.93722 0.99951 6.97611 0.924312 6.99274 0.842901C7.00937 0.761491 7.00308 0.677063 6.97458 0.599014C6.94607 0.520965 6.89647 0.452356 6.83129 0.400824C6.76611 0.349291 6.68791 0.316856 6.60539 0.307129L0.580388 0.307129C0.497111 0.315403 0.417805 0.346786 0.351417 0.397737C0.285028 0.448687 0.234201 0.517178 0.204668 0.59548C0.175136 0.673782 0.168075 0.758779 0.184281 0.840881C0.200488 0.922983 0.239317 0.998922 0.296388 1.06013Z" fill="black"/>
</g>
</g>
</g>
</svg>
